<svg width="101" height="97" viewBox="0 0 101 97" fill="none" xmlns="http://www.w3.org/2000/svg">
<path d="M43.5007 6.57674L48.9333 14.5524C46.4903 15.9971 43.5068 18.489 39.9829 22.0283C36.6711 25.4648 33.5373 29.4044 30.5817 33.8469C27.626 38.2894 25.4848 42.9269 24.1581 47.7592C25.3696 47.8273 26.3962 47.9195 27.2381 48.0357C28.2921 48.0491 29.2914 48.22 30.236 48.5483C33.6994 49.7521 36.2014 51.9451 37.7421 55.1273C39.4949 58.2067 39.66 61.793 38.2373 65.8862C36.6505 70.4516 34.0265 73.6861 30.3653 75.5896C26.7588 77.3357 22.909 77.4974 18.8159 76.0748C12.8336 73.9955 9.0342 70.2047 7.41772 64.7023C5.80124 59.2 6.08735 53.3002 8.27605 47.0031C9.80814 42.5951 12.2402 37.8823 15.5721 32.8648C19.1163 27.7445 23.2901 22.8431 28.0936 18.1606C32.9519 13.3207 38.0876 9.45938 43.5007 6.57674ZM86.951 21.6788L92.3836 29.6544C89.9406 31.0991 86.9571 33.5911 83.4332 37.1303C80.1214 40.5669 76.9876 44.5064 74.032 48.9489C71.0763 53.3915 68.9351 58.0289 67.6084 62.8612C68.8199 62.9294 69.8465 63.0215 70.6884 63.1377C71.7424 63.1511 72.7417 63.322 73.6863 63.6503C77.1497 64.8541 79.6517 67.0471 81.1924 70.2293C82.9452 73.3088 83.1103 76.8951 81.6876 80.9882C80.1008 85.5537 77.4768 88.7881 73.8156 90.6916C70.2091 92.4377 66.3593 92.5994 62.2662 91.1768C56.2839 89.0975 52.4845 85.3067 50.868 79.8044C49.2515 74.302 49.5376 68.4023 51.7263 62.1051C53.2584 57.6971 55.6905 52.9843 59.0224 47.9668C62.5666 42.8465 66.7404 37.9452 71.5439 33.2626C76.4022 28.4227 81.5379 24.5614 86.951 21.6788Z" fill="url(#paint0_linear_1_51)"/>
<defs>
<linearGradient id="paint0_linear_1_51" x1="66.9416" y1="2.11655" x2="-251.985" y2="320.507" gradientUnits="userSpaceOnUse">
<stop stop-color="#FCFCFC" stop-opacity="0"/>
<stop offset="1" stop-color="white" stop-opacity="0.5"/>
</linearGradient>
</defs>
</svg>
